<?xml version="1.0" encoding="iso-8859-1"?>
<!-- Generator: Adobe Illustrator 19.0.0, SVG Export Plug-In . SVG Version: 6.00 Build 0)  -->
<svg xmlns="http://www.w3.org/2000/svg" xmlns:xlink="http://www.w3.org/1999/xlink" version="1.1" id="Layer_1" x="0px" y="0px" viewBox="0 0 434 434" style="enable-background:new 0 0 434 434;" xml:space="preserve" width="512" height="512">
<g>
	<path style="fill:#96D0EA;" d="M39.72,277.407v0.01H0V65.257c0-12.88,10.44-23.33,23.33-23.33h387.34   c12.88,0,23.33,10.45,23.33,23.33v212.16h-39.73v-0.01C360.3,244.917,85.78,233.357,39.72,277.407z"/>
	<path style="fill:#F7B239;" d="M80.298,77.26c22.548,0,40.822,18.275,40.822,40.834c0,22.548-18.275,40.822-40.822,40.822   c-22.559,0-40.834-18.275-40.834-40.822C39.463,95.535,57.738,77.26,80.298,77.26z"/>
	<path style="fill:#2197D8;" d="M434,239.937v37.48h-79.201v-0.01c-30.082-14.44-63.672-27.04-100.053-37.47H434z"/>
	<path style="fill:#2197D8;" d="M0,239.937h177.243c-35.977,10.43-69.194,23.04-98.942,37.47v0.01H0V239.937z"/>
	<path style="fill:#F7B239;" d="M269.66,211.707c47.76,9.96,90.64,33.21,124.61,65.7v0.01H39.72v-0.01   c46.06-44.05,108.51-71.12,177.28-71.12C235.05,206.287,252.66,208.157,269.66,211.707z"/>
	<path style="fill:#E09B2D;" d="M264.983,210.792c-15.548-2.946-31.581-4.505-47.983-4.505c-68.77,0-131.22,27.07-177.28,71.12v0.01   h96v-0.01C170.787,243.87,215.36,220.192,264.983,210.792z"/>
	<polygon style="fill:#666666;" points="299.29,133.927 290.38,162.967 264.26,248.067 253.74,244.847 279.86,159.737    288.77,130.697  "/>
	
		<rect x="274.387" y="141.329" transform="matrix(0.2933 -0.956 0.956 0.2933 64.2634 380.6006)" style="fill:#4D4D4D;" width="30.376" height="11.005"/>
	<path style="fill:#9AD14B;" d="M310.21,79.587c-46.79-14.36-95.64,1.33-125.77,36.06l53.99,16.57l50.84,15.6l50.84,15.6l54,16.57   C388.64,134.327,357,93.947,310.21,79.587z"/>
	<path style="fill:#2BA5F7;" d="M310.04,80.147c21.5,11.14,32.5,43.67,30.07,83.27l-50.84-15.6l-50.84-15.6   C258.64,98.067,285.99,77.307,310.04,80.147z"/>
	<path style="fill:#F95428;" d="M0,272.083v82.07c1.42-0.2,35.54,35.74,35.05,37.92h363.9c-0.49-2.18,33.63-38.12,35.05-37.92   v-82.07H0z"/>
	<path style="fill:#F7B239;" d="M434,354.153v11.04c0,14.84-12.04,26.88-26.88,26.88h-8.17c-0.49-2.18-0.74-4.45-0.74-6.77   c0-17.37,14.08-31.45,31.44-31.45C431.13,353.853,432.58,353.953,434,354.153z"/>
	<path style="fill:#F95428;" d="M410.67,41.927H23.33C10.44,41.927,0,52.377,0,65.257v212.16h10v-10v-47.749V65.257   c0-7.35,5.98-13.33,13.33-13.33h387.34c7.35,0,13.33,5.98,13.33,13.33v154.411v47.749v10h10V65.257   C434,52.377,423.55,41.927,410.67,41.927z"/>
	<path style="fill:#E54728;" d="M55,272.083v119.99H35.05c0.49-2.18-33.63-38.12-35.05-37.92v-82.07H55z"/>
	<path style="fill:#F7B239;" d="M35.79,385.303c0,2.32-0.25,4.59-0.74,6.77h-8.17c-14.85,0-26.88-12.04-26.88-26.88v-11.04   c1.42-0.2,2.86-0.3,4.34-0.3C21.71,353.853,35.79,367.933,35.79,385.303z"/>
	<path style="fill:#F7B239;" d="M294.24,333.573v11.76c0,8.42-6.82,15.24-15.24,15.24H154.99c-8.41,0-15.24-6.82-15.24-15.24v-11.76   H294.24z"/>
	<path style="fill:#F7B239;" d="M279,368.074H154.99c-12.539,0-22.74-10.201-22.74-22.74v-40.25c0-4.142,3.358-7.5,7.5-7.5   s7.5,3.358,7.5,7.5v40.25c0,4.268,3.472,7.74,7.74,7.74H279c4.268,0,7.74-3.472,7.74-7.74v-40.25c0-4.142,3.358-7.5,7.5-7.5   s7.5,3.358,7.5,7.5v40.25C301.74,357.872,291.539,368.074,279,368.074z"/>
</g>















</svg>
